<svg xmlns:gliffy="http://www.gliffy.com" xmlns:x="http://ns.adobe.com/Extensibility/1.0/" xmlns:i="http://ns.adobe.com/AdobeIllustrator/10.0/" xmlns:graph="http://ns.adobe.com/Graphs/1.0/" xmlns:a="http://ns.adobe.com/AdobeSVGViewerExtensions/3.0/" xmlns="http://www.w3.org/2000/svg" xmlns:xlink="http://www.w3.org/1999/xlink" width="630" height="120"><rect stroke="#000000" stroke-width="0" fill="#ffffff" x="0" y="0" width="629" height="119"/><defs><filter filterUnits="objectBoundingBox" id="colorFilter-FFFFFF"><feColorMatrix in="SourceGraphic" type="matrix" values="1.0 0 0 0 0 0 1.0 0 0 0 0 0 1.0 0 0 0 0 0 1 0"/></filter><filter filterUnits="objectBoundingBox" id="colorFilter-3399FF"><feColorMatrix in="SourceGraphic" type="matrix" values="0.2 0 0 0 0 0 0.6 0 0 0 0 0 1.0 0 0 0 0 0 1 0"/></filter><symbol id="com.gliffy.symbols.flowchart.skins.fresh.process.layer0" preserveAspectRatio="none" viewBox="0 0 720 500"><rect fill="#FFFFFF" fill-opacity="0" height="500" width="720" xmlns="http://www.w3.org/2000/svg"/><path d="M720,420c0,44.2-35.8,80-80,80H80c-44.2,0-80-35.8-80-80V80C0,35.8,35.8,0,80,0h560c44.2,0,80,35.8,80,80  V420z" fill="#FFFFFF" xmlns="http://www.w3.org/2000/svg"/></symbol><symbol id="com.gliffy.symbols.flowchart.skins.fresh.process.layer1" preserveAspectRatio="none" viewBox="0 0 720 500"><rect fill="#FFFFFF" fill-opacity="0" height="500" width="720" xmlns="http://www.w3.org/2000/svg"/><path d="M702,418.1c0,33.1-26.9,60-60,60H100c-33.1,0-38-26.9-38-60v-300c0-33.1,26.9-60,60-60h520  c33.1,0,60,9.8,60,42.9V418.1z" fill="#000000" fill-opacity=".3" xmlns="http://www.w3.org/2000/svg"/></symbol><symbol id="com.gliffy.symbols.flowchart.skins.fresh.process.layer2" preserveAspectRatio="none" viewBox="0 0 720 500"><rect fill="#FFFFFF" fill-opacity="0" height="500" width="720" xmlns="http://www.w3.org/2000/svg"/><linearGradient id="SVGID_1_" xmlns="http://www.w3.org/2000/svg">
	<stop offset="0" style="stop-color:#AAAAAA"/>
	<stop offset="1" style="stop-color:#FFFFFF"/>
</linearGradient><path d="M680,426.4c0,18.6-15.9,33.6-35.6,33.6H75.6C55.9,460,40,445,40,426.4V73.6C40,55,55.9,40,75.6,40  h568.9c19.6,0,35.6,15,35.6,33.6L680,426.4L680,426.4z" fill="url(#SVGID_1_)" xmlns="http://www.w3.org/2000/svg"/></symbol></defs><g transform="translate(3,20) rotate(0 50 37)"><use filter="url(#colorFilter-3399FF)" height="75" width="100" x="0" xmlns:xlink="http://www.w3.org/1999/xlink" xlink:href="#com.gliffy.symbols.flowchart.skins.fresh.process.layer0" y="0"/><use height="75" width="100" x="0" xmlns:xlink="http://www.w3.org/1999/xlink" xlink:href="#com.gliffy.symbols.flowchart.skins.fresh.process.layer1" y="0"/><use filter="url(#colorFilter-FFFFFF)" height="75" width="100" x="0" xmlns:xlink="http://www.w3.org/1999/xlink" xlink:href="#com.gliffy.symbols.flowchart.skins.fresh.process.layer2" y="0"/><g  transform='translate(0.0,42.5)'><text x='50.0' style='text-anchor: middle' y='-2.0'><tspan xml:space='preserve' font-size='12' font-family='Arial' fill='#000000' >Source code</tspan></text></g></g><defs><filter filterUnits="objectBoundingBox" id="colorFilter-FFFFFF"><feColorMatrix in="SourceGraphic" type="matrix" values="1.0 0 0 0 0 0 1.0 0 0 0 0 0 1.0 0 0 0 0 0 1 0"/></filter><filter filterUnits="objectBoundingBox" id="colorFilter-3399FF"><feColorMatrix in="SourceGraphic" type="matrix" values="0.2 0 0 0 0 0 0.6 0 0 0 0 0 1.0 0 0 0 0 0 1 0"/></filter><symbol id="com.gliffy.symbols.flowchart.skins.fresh.decision.layer0" preserveAspectRatio="none" viewBox="0 0 50 50"><rect fill="#FFFFFF" height="50" opacity="0" width="50" y="0" xmlns="http://www.w3.org/2000/svg"/><path d="M25,50c-1.879,0-3.643-0.729-4.965-2.051L2.051,29.965C0.729,28.643,0,26.88,0,25s0.729-3.643,2.051-4.965  L20.035,2.05C21.357,0.729,23.121,0,25,0c1.88,0,3.644,0.729,4.965,2.051l17.984,17.984C49.271,21.357,50,23.12,50,25  s-0.729,3.643-2.051,4.965L29.965,47.949C28.644,49.271,26.88,50,25,50L25,50z" fill="#FFFFFF" xmlns="http://www.w3.org/2000/svg"/></symbol><symbol id="com.gliffy.symbols.flowchart.skins.fresh.decision.layer1" preserveAspectRatio="none" viewBox="0 0 50 50"><rect fill="#FFFFFF" fill-opacity="0" height="50" width="50" y="0" xmlns="http://www.w3.org/2000/svg"/><path d="M21.984,4.366c1.951-1.951,5.144-1.951,7.094,0L47.062,22.35c1.95,1.951,1.95,5.143,0,7.094L29.078,47.429  c-1.95,1.949-5.143,1.949-7.094,0L4,29.444C2.05,27.493,2.05,24.301,4,22.35L21.984,4.366z" fill="#000000" fill-opacity=".3" xmlns="http://www.w3.org/2000/svg"/></symbol><symbol id="com.gliffy.symbols.flowchart.skins.fresh.decision.layer2" preserveAspectRatio="none" viewBox="0 0 50 50"><rect fill="#FFFFFF" fill-opacity="0" height="50" width="50" xmlns="http://www.w3.org/2000/svg"/><linearGradient id="SVGID_1_" xmlns="http://www.w3.org/2000/svg">
	<stop offset="0" style="stop-color:#AAAAAA"/>
	<stop offset="1" style="stop-color:#FFFFFF"/>
</linearGradient><path d="M21.453,3.469c1.951-1.951,5.145-1.951,7.094,0l17.984,17.984c1.949,1.951,1.949,5.143,0,7.094  L28.547,46.531c-1.949,1.949-5.143,1.949-7.094,0L3.469,28.547c-1.951-1.951-1.951-5.143,0-7.094L21.453,3.469z" fill="url(#SVGID_1_)" xmlns="http://www.w3.org/2000/svg"/></symbol></defs><g transform="translate(144,5) rotate(0 50 50)"><use filter="url(#colorFilter-3399FF)" height="100" width="100" x="0" xmlns:xlink="http://www.w3.org/1999/xlink" xlink:href="#com.gliffy.symbols.flowchart.skins.fresh.decision.layer0" y="0"/><use height="100" width="100" x="0" xmlns:xlink="http://www.w3.org/1999/xlink" xlink:href="#com.gliffy.symbols.flowchart.skins.fresh.decision.layer1" y="0"/><use filter="url(#colorFilter-FFFFFF)" height="100" width="100" x="0" xmlns:xlink="http://www.w3.org/1999/xlink" xlink:href="#com.gliffy.symbols.flowchart.skins.fresh.decision.layer2" y="0"/><g  transform='translate(0.0,55.0)'><text x='50.0' style='text-anchor: middle' y='-2.0'><tspan xml:space='preserve' font-size='12' font-family='Arial' fill='#000000' >Compiler</tspan></text></g></g><defs><filter filterUnits="objectBoundingBox" id="colorFilter-FFFFFF"><feColorMatrix in="SourceGraphic" type="matrix" values="1.0 0 0 0 0 0 1.0 0 0 0 0 0 1.0 0 0 0 0 0 1 0"/></filter><filter filterUnits="objectBoundingBox" id="colorFilter-3399FF"><feColorMatrix in="SourceGraphic" type="matrix" values="0.2 0 0 0 0 0 0.6 0 0 0 0 0 1.0 0 0 0 0 0 1 0"/></filter></defs><g transform="translate(265,17) rotate(0 50 37)"><use filter="url(#colorFilter-3399FF)" height="75" width="100" x="0" xmlns:xlink="http://www.w3.org/1999/xlink" xlink:href="#com.gliffy.symbols.flowchart.skins.fresh.process.layer0" y="0"/><use height="75" width="100" x="0" xmlns:xlink="http://www.w3.org/1999/xlink" xlink:href="#com.gliffy.symbols.flowchart.skins.fresh.process.layer1" y="0"/><use filter="url(#colorFilter-FFFFFF)" height="75" width="100" x="0" xmlns:xlink="http://www.w3.org/1999/xlink" xlink:href="#com.gliffy.symbols.flowchart.skins.fresh.process.layer2" y="0"/><g  transform='translate(0.0,42.5)'><text x='50.0' style='text-anchor: middle' y='-2.0'><tspan xml:space='preserve' font-size='12' font-family='Arial' fill='#000000' >Bytecode</tspan></text></g></g><defs><filter filterUnits="objectBoundingBox" id="colorFilter-FFFFFF"><feColorMatrix in="SourceGraphic" type="matrix" values="1.0 0 0 0 0 0 1.0 0 0 0 0 0 1.0 0 0 0 0 0 1 0"/></filter><filter filterUnits="objectBoundingBox" id="colorFilter-3399FF"><feColorMatrix in="SourceGraphic" type="matrix" values="0.2 0 0 0 0 0 0.6 0 0 0 0 0 1.0 0 0 0 0 0 1 0"/></filter></defs><g transform="translate(401,5) rotate(0 50 50)"><use filter="url(#colorFilter-3399FF)" height="100" width="100" x="0" xmlns:xlink="http://www.w3.org/1999/xlink" xlink:href="#com.gliffy.symbols.flowchart.skins.fresh.decision.layer0" y="0"/><use height="100" width="100" x="0" xmlns:xlink="http://www.w3.org/1999/xlink" xlink:href="#com.gliffy.symbols.flowchart.skins.fresh.decision.layer1" y="0"/><use filter="url(#colorFilter-FFFFFF)" height="100" width="100" x="0" xmlns:xlink="http://www.w3.org/1999/xlink" xlink:href="#com.gliffy.symbols.flowchart.skins.fresh.decision.layer2" y="0"/><g  transform='translate(0.0,55.0)'><text x='50.0' style='text-anchor: middle' y='-2.0'><tspan xml:space='preserve' font-size='12' font-family='Arial' fill='#000000' >Executor</tspan></text></g></g><defs><linearGradient gradientUnits="userSpaceOnUse" id="SVGIDmonitor_LCD_1_" x1="18.7827" x2="53.978" xlink:actuate="onLoad" xlink:show="other" xlink:type="simple" xmlns:xlink="http://www.w3.org/1999/xlink" y1="80.7588" y2="80.7588">			<stop offset="0" style="stop-color:#444444"/>			<stop offset="0.1534" style="stop-color:#CACACA"/>			<stop offset="1" style="stop-color:#000000"/>			<a:midPointStop offset="0" style="stop-color:#444444"/>			<a:midPointStop offset="0.5" style="stop-color:#444444"/>			<a:midPointStop offset="0.1534" style="stop-color:#CACACA"/>			<a:midPointStop offset="0.5" style="stop-color:#CACACA"/>			<a:midPointStop offset="1" style="stop-color:#000000"/>		</linearGradient><linearGradient gradientUnits="userSpaceOnUse" id="SVGIDmonitor_LCD_2_" x1="46.0288" x2="29.0453" xlink:actuate="onLoad" xlink:show="other" xlink:type="simple" xmlns:xlink="http://www.w3.org/1999/xlink" y1="74.0146" y2="84.7581">			<stop offset="0" style="stop-color:#000000"/>			<stop offset="1" style="stop-color:#9D9D9D"/>			<a:midPointStop offset="0" style="stop-color:#000000"/>			<a:midPointStop offset="0.5" style="stop-color:#000000"/>			<a:midPointStop offset="1" style="stop-color:#9D9D9D"/>		</linearGradient><linearGradient gradientUnits="userSpaceOnUse" id="SVGIDmonitor_LCD_3_" x1="35.7749" x2="32.4971" xlink:actuate="onLoad" xlink:show="other" xlink:type="simple" xmlns:xlink="http://www.w3.org/1999/xlink" y1="69.7773" y2="76.8065">		<stop offset="0" style="stop-color:#121212"/>		<stop offset="0.1621" style="stop-color:#161616"/>		<stop offset="0.3188" style="stop-color:#212121"/>		<stop offset="0.4732" style="stop-color:#353535"/>		<stop offset="0.6264" style="stop-color:#505050"/>		<stop offset="0.7787" style="stop-color:#737373"/>		<stop offset="0.9282" style="stop-color:#9E9E9E"/>		<stop offset="0.9877" style="stop-color:#B1B1B1"/>		<a:midPointStop offset="0" style="stop-color:#121212"/>		<a:midPointStop offset="0.7143" style="stop-color:#121212"/>		<a:midPointStop offset="0.9877" style="stop-color:#B1B1B1"/>	</linearGradient><linearGradient gradientUnits="userSpaceOnUse" id="SVGIDmonitor_LCD_4_" x1="31.8887" x2="36.3804" xlink:actuate="onLoad" xlink:show="other" xlink:type="simple" xmlns:xlink="http://www.w3.org/1999/xlink" y1="73.293" y2="73.293">		<stop offset="0" style="stop-color:#252525"/>		<stop offset="0.9877" style="stop-color:#B1B1B1"/>		<a:midPointStop offset="0" style="stop-color:#252525"/>		<a:midPointStop offset="0.5" style="stop-color:#252525"/>		<a:midPointStop offset="0.9877" style="stop-color:#B1B1B1"/>	</linearGradient><linearGradient gradientTransform="matrix(1 0 0 1 -25.6729 19.7939)" gradientUnits="userSpaceOnUse" id="SVGIDmonitor_LCD_5_" x1="31.5962" x2="107.3716" xlink:actuate="onLoad" xlink:show="other" xlink:type="simple" xmlns:xlink="http://www.w3.org/1999/xlink" y1="26.0566" y2="26.0566">		<stop offset="0" style="stop-color:#BABFC3"/>		<stop offset="1" style="stop-color:#5A7799"/>		<a:midPointStop offset="0" style="stop-color:#BABFC3"/>		<a:midPointStop offset="0.5" style="stop-color:#BABFC3"/>		<a:midPointStop offset="1" style="stop-color:#5A7799"/>	</linearGradient><symbol id="com.gliffy.newnetwork.home.Monitor_LCD" viewBox="0 0 88 100" preserveAspectRatio="none"><g id="Layer_0">	<rect fill="none" height="100" width="88"/>	<polygon points="3.893,51.937 2.393,58.213 69.578,98.188 71.335,90.465  "/></g><g id="Layer_1">	<rect fill="none" height="100" width="88"/>	<path d="M71.065,99.89c0,0,1.783-0.667,3.724-3.873C76.679,92.896,87.964,48.336,88,43.25   c0.021-3.035-1.951-5.609-3.172-6.639L71.065,99.89z" fill="#3E3E3E"/>	<path d="M16.373,0.03c0,0,1.822-0.027,3.523,0.121c8.503,0.748,48.521,19.65,64.932,36.46   c2.574,2.876,1.125,6.517,1.125,6.517L16.373,0.03z" fill="#C5C5C5"/>	<g>				<path d="M22.245,70.438c-5.533,5.211-4.437,12.165,3.305,16.698c7.741,4.533,19.578,5.155,28.428,1.886    L22.245,70.438z" fill="url(#SVGIDmonitor_LCD_1_)"/>				<path d="M22.141,70.438c-4.035,5.015-2.526,11.189,4.56,15.34c7.086,4.15,17.602,5.015,26.12,2.629    L22.141,70.438z" fill="url(#SVGIDmonitor_LCD_2_)"/>	</g>	<path d="M17.869,0.39c-1.53-0.891-3.141-0.201-3.583,1.53L0.533,55.975c-0.441,1.731,0.447,3.882,1.974,4.777   l66.237,38.854c1.526,0.896,3.128,0.21,3.559-1.525l13.544-54.516c0.431-1.735-0.468-3.883-1.998-4.773L17.869,0.39z    M69.772,93.935c-0.387,1.745-1.95,2.437-3.474,1.537L5.67,59.648c-1.524-0.9-2.434-2.893-2.021-4.427   c0.413-1.533,2.004-2.066,3.538-1.184l60.556,34.866c1.533,0.883,2.472,3.033,2.085,4.777L69.772,93.935z" fill="#818181"/>	<g>		<path d="M7.627,51.231c-1.43-0.823-2.267-2.806-1.859-4.404L15.977,6.801c0.408-1.599,1.91-2.23,3.337-1.404    l60.685,35.13c1.428,0.826,2.269,2.812,1.869,4.413l-9.982,39.957c-0.4,1.601-1.897,2.236-3.327,1.413L7.627,51.231z" fill="#4D4D4D"/>	</g>		<path d="M34.941,77.387c-1.744,0.355-3.521-1.193-3.965-3.453c-0.446-2.264,0.608-4.382,2.354-4.736   c1.743-0.354,3.52,1.191,3.963,3.456C37.739,74.916,36.686,77.033,34.941,77.387z" fill="url(#SVGIDmonitor_LCD_3_)"/>		<path d="M34.69,76.114c-1.201,0.243-2.425-0.823-2.73-2.38c-0.308-1.56,0.418-3.02,1.62-3.262   c1.201-0.242,2.425,0.821,2.73,2.38C36.617,74.41,35.891,75.87,34.69,76.114z" fill="url(#SVGIDmonitor_LCD_4_)"/>				<path d="M68.353,85.508c1.901,1.095,3.181-0.013,3.611-1.731l9.585-38.298   c0.334-1.18,0.265-3.559-1.897-4.829L19.906,6.336c-2.933-1.722-3.62,0.841-3.95,2.021L6.098,46.652   c-0.625,1.704,0.546,2.979,1.591,3.597L68.353,85.508z" fill="url(#SVGIDmonitor_LCD_5_)"/></g></symbol></defs><g transform='translate(550.8,16.0) rotate(0 35.2 40.0)'><use xlink:href='#com.gliffy.newnetwork.home.Monitor_LCD' width='70.4' height='80.0'  fill="#003366"/><g  transform='translate(0.0,97.0)'><text x='35.2' style='text-anchor: middle' y='-2.0'><tspan xml:space='preserve' font-size='12' font-family='Arial' fill='#000000' >Output</tspan></text></g></g><g transform='translate(104.0,57.0)'><path d='M0.0,0.0 L10.5,0.0 Q20.5,0.0 20.5,0.0 L20.5,0.0 Q20.5,0.0 20.5,0.0 L38.0,0.0 ' stroke-dasharray='23, 0' fill='none' stroke='#333333' stroke-width='2' /><g transform='translate(41.0,0.0) rotate(180.0)'><polygon points='3.0,0 9.0,-3.0 9.0,3.0' fill='#333333' stroke='#333333' stroke-width='2.0' /></g><g transform='translate(15.5,0.0)'></g></g><g transform='translate(245.0,55.0)'><path d='M0.0,0.0 L5.25,0.0 Q10.5,0.0 10.5,0.0 L10.5,0.0 Q10.5,0.0 10.5,0.0 L18.0,0.0 ' stroke-dasharray='23, 0' fill='none' stroke='#333333' stroke-width='2' /><g transform='translate(21.0,0.0) rotate(180.0)'><polygon points='3.0,0 9.0,-3.0 9.0,3.0' fill='#333333' stroke='#333333' stroke-width='2.0' /></g><g transform='translate(7.875,0.0)'></g></g><g transform='translate(366.0,54.0)'><path d='M0.0,0.0 L9.0,0.0 Q18.0,0.0 18.0,0.0 L18.0,0.0 Q18.0,0.0 18.0,0.0 L33.0,0.0 ' stroke-dasharray='23, 0' fill='none' stroke='#333333' stroke-width='2' /><g transform='translate(36.0,0.0) rotate(180.0)'><polygon points='3.0,0 9.0,-3.0 9.0,3.0' fill='#333333' stroke='#333333' stroke-width='2.0' /></g><g transform='translate(13.5,0.0)'></g></g><g transform='translate(502.0,55.0)'><path d='M0.0,0.0 L14.399999999999977,0.0 Q24.399999999999977,0.0 24.399999999999977,0.0 L24.399999999999977,0.0 Q24.399999999999977,0.0 24.399999999999977,0.0 L45.799999999999955,0.0 ' stroke-dasharray='23, 0' fill='none' stroke='#333333' stroke-width='2' /><g transform='translate(48.799999999999955,0.0) rotate(180.0)'><polygon points='3.0,0 9.0,-3.0 9.0,3.0' fill='#333333' stroke='#333333' stroke-width='2.0' /></g><g transform='translate(19.399999999999977,0.0)'></g></g></svg>